# xmcd
#
# Track frame offsets:
# 150
# 16825
# 30587
# 55145
# 58740
# 83273
# 101814
# 114997
# 145955
# 161466
# 179634
# 197356
# 215227
#
# Disc length: 3265 seconds
#
#
# Revision: 0
# Processed by: cddbd v1.5.2PL0 Copyright (c) Steve Scherf et al.
# Submitted via: FreeRIP 2.35 
#
DISCID=ab0cbf0d
DTITLE=Tabby Thomas - Swamp Man Blues
DYEAR=1999
DGENRE=Blues
TTITLE0=Swamp Man Blues
TTITLE1=Hey Bartender
TTITLE2=Drinkin' Blues
TTITLE3=Dirty Draws
TTITLE4=Hoo Do Man
TTITLE5=Going To New Orleans
TTITLE6=Rock This House
TTITLE7=Gamblin' Woman
TTITLE8=Hey Little School Girl
TTITLE9=Is I'm Your Man
TTITLE10=Lilie Brown
TTITLE11=Thin Ice
TTITLE12=Bonus Track
EXTD=
EXTT0=
EXTT1=
EXTT2=
EXTT3=
EXTT4=
EXTT5=
EXTT6=
EXTT7=
EXTT8=
EXTT9=
EXTT10=
EXTT11=
EXTT12=
PLAYORDER=
